<svg xmlns="http://www.w3.org/2000/svg" version="1.1" xmlns:xlink="http://www.w3.org/1999/xlink" xmlns:svgjs="http://svgjs.dev/svgjs" width="1500" height="511" viewBox="0 0 1500 511"><g transform="matrix(1,0,0,1,-0.9090909090909918,0.6372554990197727)"><svg viewBox="0 0 396 135" data-background-color="#ffffff" preserveAspectRatio="xMidYMid meet" height="511" width="1500" xmlns="http://www.w3.org/2000/svg" xmlns:xlink="http://www.w3.org/1999/xlink"><g id="tight-bounds" transform="matrix(1,0,0,1,0.2400000000000091,-0.16835517097391062)"><svg viewBox="0 0 395.52 135.33657821821697" height="135.33657821821697" width="395.52"><g><svg viewBox="0 0 669.3931029585576 229.04877638876872" height="135.33657821821697" width="395.52"><g transform="matrix(1,0,0,1,273.8731029585576,44.588035756904475)"><svg viewBox="0 0 395.52 139.87270487495977" height="139.87270487495977" width="395.52"><g id="textblocktransform"><svg viewBox="0 0 395.52 139.87270487495977" height="139.87270487495977" width="395.52" id="textblock"><g></g><g><svg viewBox="0 0 395.52 94.93622089875473" height="94.93622089875473" width="395.52"><g transform="matrix(1,0,0,1,0,0)"><svg width="395.52" viewBox="3.55 -32.6 138.51999999999998 33.25" height="94.93622089875473" data-palette-color="#1cac7c"><path d="M14.73 0L14.73 0 6.98 0 6.98-4.23 14.55-4.23Q18.5-4.23 20.49-6.38 22.48-8.53 22.48-12.53L22.48-12.53 22.48-19.48Q22.48-23.5 20.49-25.64 18.5-27.78 14.55-27.78L14.55-27.78 6.95-27.78 6.95-31.95 14.73-31.95Q21.08-31.95 24.3-28.74 27.53-25.53 27.53-19.5L27.53-19.5 27.53-12.5Q27.53-6.48 24.3-3.24 21.08 0 14.73 0ZM8.5-31.95L8.5 0 3.55 0 3.55-31.95 8.5-31.95ZM47 0L47 0 36.9 0 36.9-4.13 46.47-4.13Q49.52-4.13 50.8-5.38 52.07-6.63 52.07-8.88L52.07-8.88 52.07-9.65Q52.07-11.95 50.77-13.19 49.47-14.43 46.27-14.43L46.27-14.43 36.87-14.43 36.87-18.38 46.22-18.38Q49.1-18.38 50.31-19.59 51.52-20.8 51.52-22.98L51.52-22.98 51.52-23.38Q51.52-25.5 50.35-26.68 49.17-27.85 46.2-27.85L46.2-27.85 36.8-27.85 36.8-31.95 46.67-31.95Q51.95-31.95 54.25-29.94 56.55-27.93 56.55-24.18L56.55-24.18 56.55-23.73Q56.55-20.85 55.22-19.26 53.9-17.68 51.12-17.3L51.12-17.3 51.12-17.05Q54.3-16.43 55.73-14.63 57.17-12.83 57.17-9.55L57.17-9.55 57.17-8.6Q57.17-4.5 54.77-2.25 52.37 0 47 0ZM38.37-31.95L38.37 0 33.42 0 33.42-31.95 38.37-31.95ZM75-10.25L75-10.25 66.05-10.25 66.05-14.4 74.87-14.4Q77.87-14.4 79.23-15.89 80.6-17.38 80.6-20.03L80.6-20.03 80.6-22.2Q80.6-24.93 79.25-26.38 77.9-27.83 74.92-27.83L74.92-27.83 66.02-27.83 66.02-31.95 75.02-31.95Q80.52-31.95 83.06-29.41 85.6-26.88 85.6-22.33L85.6-22.33 85.6-19.9Q85.6-15.35 83.05-12.8 80.5-10.25 75-10.25ZM67.7-10.93L67.7 0 62.75 0 62.75-31.95 67.67-31.95 67.67-13.18 67.7-10.93ZM102.72 0.65L102.72 0.65Q96.47 0.65 93.23-2.75 89.99-6.15 89.99-12.48L89.99-12.48 89.99-19.5Q89.99-25.8 93.23-29.2 96.47-32.6 102.72-32.6L102.72-32.6Q108.97-32.6 112.21-29.2 115.44-25.8 115.44-19.5L115.44-19.5 115.44-12.48Q115.44-6.15 112.21-2.75 108.97 0.65 102.72 0.65ZM102.72-3.53L102.72-3.53Q106.52-3.53 108.43-5.81 110.34-8.1 110.34-12.28L110.34-12.28 110.34-19.7Q110.34-23.9 108.43-26.16 106.52-28.43 102.72-28.43L102.72-28.43Q98.92-28.43 97.01-26.16 95.09-23.9 95.09-19.7L95.09-19.7 95.09-12.28Q95.09-8.1 97.01-5.81 98.92-3.53 102.72-3.53ZM130.57 0.6L130.57 0.6Q128.29 0.6 126.37 0.25 124.44-0.1 122.93-0.63 121.42-1.15 120.37-1.68L120.37-1.68 119.89-6.6Q121.82-5.5 124.45-4.65 127.09-3.8 130.17-3.8L130.17-3.8Q133.67-3.8 135.32-4.96 136.97-6.13 136.97-8.47L136.97-8.47 136.97-8.85Q136.97-10.38 136.3-11.36 135.64-12.35 134.07-13.06 132.49-13.78 129.79-14.43L129.79-14.43Q126.24-15.3 124.05-16.49 121.87-17.68 120.87-19.46 119.87-21.25 119.87-23.93L119.87-23.93 119.87-24.18Q119.87-28.2 122.54-30.38 125.22-32.55 130.57-32.55L130.57-32.55Q133.99-32.55 136.43-31.89 138.87-31.23 140.44-30.4L140.44-30.4 140.89-25.83Q139.07-26.88 136.69-27.59 134.32-28.3 131.34-28.3L131.34-28.3Q129.02-28.3 127.62-27.79 126.22-27.28 125.59-26.31 124.97-25.35 124.97-24L124.97-24 124.97-23.9Q124.97-22.5 125.59-21.5 126.22-20.5 127.8-19.74 129.39-18.98 132.32-18.23L132.32-18.23Q135.79-17.35 137.93-16.26 140.07-15.18 141.07-13.44 142.07-11.7 142.07-8.88L142.07-8.88 142.07-8.38Q142.07-3.95 139.19-1.68 136.32 0.6 130.57 0.6Z" opacity="1" transform="matrix(1,0,0,1,0,0)" fill="#1cac7c" class="wordmark-text-0" data-fill-palette-color="primary" id="text-0"></path></svg></g></svg></g><g transform="matrix(1,0,0,1,0,117.34838418364915)"><svg viewBox="0 0 395.52 22.524320691310606" height="22.524320691310606" width="395.52"><g transform="matrix(1,0,0,1,8,0)"><svg width="379.52" viewBox="3.8 -38.85 838.75 49.45" height="22.524320691310606" data-palette-color="#c6e4ec"><path d="M3.8-34.45L19.6-34.45 19.1-30.8 8.35-30.8 8.35-19.35 17.7-19.35 17.7-15.7 8.35-15.7 8.35-3.65 19.8-3.65 19.8 0 3.8 0 3.8-34.45ZM33.4-33.9Q31.8-33.9 31.05-33.1 30.3-32.3 30.3-30.55L30.3-30.55 30.3-26.35 35.6-26.35 35.1-22.9 30.3-22.9 30.3 0 25.9 0 25.9-22.9 22.25-22.9 22.25-26.35 25.9-26.35 25.9-30.5Q25.9-33.6 27.78-35.52 29.65-37.45 33.05-37.45L33.05-37.45Q35.8-37.45 38.4-36.1L38.4-36.1 37.1-33Q35.25-33.9 33.4-33.9L33.4-33.9ZM47.55-33.9Q45.95-33.9 45.2-33.1 44.45-32.3 44.45-30.55L44.45-30.55 44.45-26.35 49.75-26.35 49.25-22.9 44.45-22.9 44.45 0 40.05 0 40.05-22.9 36.4-22.9 36.4-26.35 40.05-26.35 40.05-30.5Q40.05-33.6 41.93-35.52 43.8-37.45 47.2-37.45L47.2-37.45Q49.95-37.45 52.55-36.1L52.55-36.1 51.25-33Q49.4-33.9 47.55-33.9L47.55-33.9ZM53.7-26.35L58.1-26.35 58.1 0 53.7 0 53.7-26.35ZM55.85-38.85Q57.2-38.85 58-38 58.8-37.15 58.8-35.8L58.8-35.8Q58.8-34.55 57.98-33.7 57.15-32.85 55.85-32.85L55.85-32.85Q54.55-32.85 53.73-33.7 52.9-34.55 52.9-35.8L52.9-35.8Q52.9-37.1 53.73-37.98 54.55-38.85 55.85-38.85L55.85-38.85ZM73.85-26.9Q75.85-26.9 77.45-26.25 79.05-25.6 80.55-24.1L80.55-24.1 78.55-21.5Q77.4-22.45 76.33-22.9 75.25-23.35 74-23.35L74-23.35Q68.7-23.35 68.7-13.05L68.7-13.05Q68.7-7.7 70.05-5.4 71.4-3.1 73.95-3.1L73.95-3.1Q75.2-3.1 76.23-3.55 77.25-4 78.5-4.95L78.5-4.95 80.55-2.3Q77.55 0.6 73.9 0.6L73.9 0.6Q69.2 0.6 66.6-2.8 64-6.2 64-12.95L64-12.95Q64-19.55 66.65-23.23 69.3-26.9 73.85-26.9L73.85-26.9ZM84.95-26.35L89.35-26.35 89.35 0 84.95 0 84.95-26.35ZM87.1-38.85Q88.45-38.85 89.25-38 90.05-37.15 90.05-35.8L90.05-35.8Q90.05-34.55 89.23-33.7 88.4-32.85 87.1-32.85L87.1-32.85Q85.8-32.85 84.98-33.7 84.15-34.55 84.15-35.8L84.15-35.8Q84.15-37.1 84.98-37.98 85.8-38.85 87.1-38.85L87.1-38.85ZM113.7-13.95Q113.7-12.85 113.6-11.65L113.6-11.65 99.8-11.65Q100-6.9 101.38-4.95 102.75-3 105.3-3L105.3-3Q106.95-3 108.25-3.53 109.55-4.05 110.95-5.2L110.95-5.2 112.9-2.55Q109.6 0.6 105.15 0.6L105.15 0.6Q100.45 0.6 97.85-2.88 95.25-6.35 95.25-12.9L95.25-12.9Q95.25-19.45 97.73-23.18 100.2-26.9 104.7-26.9L104.7-26.9Q109.05-26.9 111.38-23.63 113.7-20.35 113.7-13.95L113.7-13.95ZM109.45-14.9L109.45-15.25Q109.45-19.55 108.3-21.5 107.15-23.45 104.7-23.45L104.7-23.45Q102.5-23.45 101.25-21.48 100-19.5 99.8-14.9L99.8-14.9 109.45-14.9ZM130.1-26.9Q132.95-26.9 134.65-24.85 136.35-22.8 136.35-19.35L136.35-19.35 136.35 0 131.95 0 131.95-18.75Q131.95-21.3 131.23-22.38 130.5-23.45 129.05-23.45L129.05-23.45Q126.2-23.45 123.75-18.55L123.75-18.55 123.75 0 119.35 0 119.35-26.35 123.15-26.35 123.5-22.4Q124.8-24.6 126.35-25.75 127.9-26.9 130.1-26.9L130.1-26.9ZM151.9-26.9Q153.9-26.9 155.5-26.25 157.1-25.6 158.6-24.1L158.6-24.1 156.6-21.5Q155.45-22.45 154.38-22.9 153.3-23.35 152.05-23.35L152.05-23.35Q146.75-23.35 146.75-13.05L146.75-13.05Q146.75-7.7 148.1-5.4 149.45-3.1 152-3.1L152-3.1Q153.25-3.1 154.28-3.55 155.3-4 156.55-4.95L156.55-4.95 158.6-2.3Q155.6 0.6 151.95 0.6L151.95 0.6Q147.25 0.6 144.65-2.8 142.05-6.2 142.05-12.95L142.05-12.95Q142.05-19.55 144.7-23.23 147.35-26.9 151.9-26.9L151.9-26.9ZM179.75-26.35L172.55 0.15Q171.3 4.7 168.85 7.35 166.4 10 162.05 10.6L162.05 10.6 161.55 7.25Q164.7 6.55 166.15 4.95 167.6 3.35 168.6 0L168.6 0 166.95 0 159.85-26.35 164.35-26.35 169.85-3.2 175.3-26.35 179.75-26.35ZM215.05 0L210.05 0 203.35-14.75Q203-14.7 202.3-14.7L202.3-14.7 199.2-14.7 199.2 0 194.65 0 194.65-34.45 201.55-34.45Q207.6-34.45 210.55-31.95 213.5-29.45 213.5-24.75L213.5-24.75Q213.5-21.45 211.95-19.07 210.4-16.7 207.5-15.6L207.5-15.6 215.05 0ZM201.9-18.2Q205.5-18.2 207.1-19.78 208.7-21.35 208.7-24.75L208.7-24.75Q208.7-27.9 207.05-29.38 205.4-30.85 201.5-30.85L201.5-30.85 199.2-30.85 199.2-18.2 201.9-18.2ZM236.65-13.95Q236.65-12.85 236.55-11.65L236.55-11.65 222.75-11.65Q222.95-6.9 224.33-4.95 225.7-3 228.25-3L228.25-3Q229.9-3 231.2-3.53 232.5-4.05 233.9-5.2L233.9-5.2 235.85-2.55Q232.55 0.6 228.1 0.6L228.1 0.6Q223.4 0.6 220.8-2.88 218.2-6.35 218.2-12.9L218.2-12.9Q218.2-19.45 220.68-23.18 223.15-26.9 227.65-26.9L227.65-26.9Q232-26.9 234.33-23.63 236.65-20.35 236.65-13.95L236.65-13.95ZM232.4-14.9L232.4-15.25Q232.4-19.55 231.25-21.5 230.1-23.45 227.65-23.45L227.65-23.45Q225.45-23.45 224.2-21.48 222.95-19.5 222.75-14.9L222.75-14.9 232.4-14.9ZM255.15-37.45L259.55-36.95 259.55 0 255.65 0 255.35-3.35Q253 0.6 249.35 0.6L249.35 0.6Q245.25 0.6 243.08-3.03 240.9-6.65 240.9-13.05L240.9-13.05Q240.9-17.2 242-20.35 243.1-23.5 245.05-25.2 247-26.9 249.5-26.9L249.5-26.9Q252.95-26.9 255.15-23.85L255.15-23.85 255.15-37.45ZM250.2-2.9Q253.05-2.9 255.15-6.65L255.15-6.65 255.15-20Q253.1-23.4 250.4-23.4L250.4-23.4Q248.1-23.4 246.83-20.9 245.55-18.4 245.55-13.15L245.55-13.15Q245.55-2.9 250.2-2.9L250.2-2.9ZM283.9-13.95Q283.9-12.85 283.8-11.65L283.8-11.65 270-11.65Q270.2-6.9 271.58-4.95 272.95-3 275.5-3L275.5-3Q277.15-3 278.45-3.53 279.75-4.05 281.15-5.2L281.15-5.2 283.1-2.55Q279.8 0.6 275.35 0.6L275.35 0.6Q270.65 0.6 268.05-2.88 265.45-6.35 265.45-12.9L265.45-12.9Q265.45-19.45 267.93-23.18 270.4-26.9 274.9-26.9L274.9-26.9Q279.25-26.9 281.58-23.63 283.9-20.35 283.9-13.95L283.9-13.95ZM279.65-14.9L279.65-15.25Q279.65-19.55 278.5-21.5 277.35-23.45 274.9-23.45L274.9-23.45Q272.7-23.45 271.45-21.48 270.2-19.5 270-14.9L270-14.9 279.65-14.9ZM297.55-33.9Q295.95-33.9 295.2-33.1 294.45-32.3 294.45-30.55L294.45-30.55 294.45-26.35 299.75-26.35 299.25-22.9 294.45-22.9 294.45 0 290.05 0 290.05-22.9 286.4-22.9 286.4-26.35 290.05-26.35 290.05-30.5Q290.05-33.6 291.93-35.52 293.8-37.45 297.2-37.45L297.2-37.45Q299.95-37.45 302.55-36.1L302.55-36.1 301.25-33Q299.4-33.9 297.55-33.9L297.55-33.9ZM303.7-26.35L308.1-26.35 308.1 0 303.7 0 303.7-26.35ZM305.85-38.85Q307.2-38.85 308-38 308.8-37.15 308.8-35.8L308.8-35.8Q308.8-34.55 307.98-33.7 307.15-32.85 305.85-32.85L305.85-32.85Q304.55-32.85 303.73-33.7 302.9-34.55 302.9-35.8L302.9-35.8Q302.9-37.1 303.73-37.98 304.55-38.85 305.85-38.85L305.85-38.85ZM326.15-26.9Q329-26.9 330.7-24.85 332.4-22.8 332.4-19.35L332.4-19.35 332.4 0 328 0 328-18.75Q328-21.3 327.27-22.38 326.55-23.45 325.1-23.45L325.1-23.45Q322.25-23.45 319.8-18.55L319.8-18.55 319.8 0 315.4 0 315.4-26.35 319.2-26.35 319.55-22.4Q320.85-24.6 322.4-25.75 323.95-26.9 326.15-26.9L326.15-26.9ZM356.55-13.95Q356.55-12.85 356.45-11.65L356.45-11.65 342.65-11.65Q342.85-6.9 344.23-4.95 345.6-3 348.15-3L348.15-3Q349.8-3 351.1-3.53 352.4-4.05 353.8-5.2L353.8-5.2 355.75-2.55Q352.45 0.6 348 0.6L348 0.6Q343.3 0.6 340.7-2.88 338.1-6.35 338.1-12.9L338.1-12.9Q338.1-19.45 340.58-23.18 343.05-26.9 347.55-26.9L347.55-26.9Q351.9-26.9 354.23-23.63 356.55-20.35 356.55-13.95L356.55-13.95ZM352.3-14.9L352.3-15.25Q352.3-19.55 351.15-21.5 350-23.45 347.55-23.45L347.55-23.45Q345.35-23.45 344.1-21.48 342.85-19.5 342.65-14.9L342.65-14.9 352.3-14.9ZM375.05-37.45L379.45-36.95 379.45 0 375.55 0 375.25-3.35Q372.9 0.6 369.25 0.6L369.25 0.6Q365.15 0.6 362.98-3.03 360.8-6.65 360.8-13.05L360.8-13.05Q360.8-17.2 361.9-20.35 363-23.5 364.95-25.2 366.9-26.9 369.4-26.9L369.4-26.9Q372.85-26.9 375.05-23.85L375.05-23.85 375.05-37.45ZM370.1-2.9Q372.95-2.9 375.05-6.65L375.05-6.65 375.05-20Q373-23.4 370.3-23.4L370.3-23.4Q368-23.4 366.73-20.9 365.45-18.4 365.45-13.15L365.45-13.15Q365.45-2.9 370.1-2.9L370.1-2.9ZM388.25-6Q389.6-6 390.45-5.08 391.3-4.15 391.3-2.75L391.3-2.75Q391.3-2.1 391.05-1.23 390.8-0.35 390.4 0.7L390.4 0.7 387.7 8.2 384.85 8.2 386.6 0.05Q385.9-0.45 385.5-1.18 385.1-1.9 385.1-2.75L385.1-2.75Q385.1-4.15 385.98-5.08 386.85-6 388.25-6L388.25-6ZM404.45-34.45L425-34.45 424.5-30.65 416.85-30.65 416.85 0 412.3 0 412.3-30.65 404.45-30.65 404.45-34.45ZM439.05-26.9Q440.15-26.9 441.05-26.6L441.05-26.6 440.3-22.35Q439.3-22.6 438.5-22.6L438.5-22.6Q436.55-22.6 435.3-20.85 434.05-19.1 433.35-15.5L433.35-15.5 433.35 0 428.95 0 428.95-26.35 432.75-26.35 433.1-21.45Q434.95-26.9 439.05-26.9L439.05-26.9ZM460.3-5.6Q460.3-4.2 460.7-3.53 461.1-2.85 462-2.45L462-2.45 461.05 0.6Q459.2 0.3 458.13-0.58 457.05-1.45 456.6-3.2L456.6-3.2Q454.45 0.6 450.3 0.6L450.3 0.6Q447.05 0.6 445.13-1.58 443.2-3.75 443.2-7.35L443.2-7.35Q443.2-11.55 445.8-13.78 448.4-16 453.35-16L453.35-16 455.95-16 455.95-18.4Q455.95-21 454.93-22.2 453.9-23.4 451.75-23.4L451.75-23.4Q449.2-23.4 445.8-22.05L445.8-22.05 444.7-25.15Q448.75-26.9 452.3-26.9L452.3-26.9Q456.35-26.9 458.32-24.73 460.3-22.55 460.3-18.6L460.3-18.6 460.3-5.6ZM451.2-2.7Q454.3-2.7 455.95-6.9L455.95-6.9 455.95-13.05 453.85-13.05Q450.7-13.05 449.22-11.7 447.75-10.35 447.75-7.55L447.75-7.55Q447.75-5.15 448.65-3.93 449.55-2.7 451.2-2.7L451.2-2.7ZM478.4-26.9Q481.25-26.9 482.95-24.85 484.65-22.8 484.65-19.35L484.65-19.35 484.65 0 480.25 0 480.25-18.75Q480.25-21.3 479.52-22.38 478.8-23.45 477.35-23.45L477.35-23.45Q474.5-23.45 472.05-18.55L472.05-18.55 472.05 0 467.65 0 467.65-26.35 471.45-26.35 471.8-22.4Q473.1-24.6 474.65-25.75 476.2-26.9 478.4-26.9L478.4-26.9ZM498.15-26.9Q502.5-26.9 505.6-23.95L505.6-23.95 503.7-21.4Q502.3-22.45 501-22.98 499.7-23.5 498.25-23.5L498.25-23.5Q496.5-23.5 495.48-22.53 494.45-21.55 494.45-19.85L494.45-19.85Q494.45-18.2 495.45-17.25 496.45-16.3 499.25-15.3L499.25-15.3Q502.85-14 504.55-12.2 506.25-10.4 506.25-7.3L506.25-7.3Q506.25-3.55 503.73-1.48 501.2 0.6 497.45 0.6L497.45 0.6Q492.45 0.6 489.1-2.85L489.1-2.85 491.4-5.3Q494.2-2.85 497.35-2.85L497.35-2.85Q499.35-2.85 500.55-3.95 501.75-5.05 501.75-7.05L501.75-7.05Q501.75-8.4 501.3-9.25 500.85-10.1 499.75-10.8 498.65-11.5 496.55-12.25L496.55-12.25Q493.05-13.55 491.55-15.33 490.05-17.1 490.05-19.7L490.05-19.7Q490.05-21.7 491.08-23.35 492.1-25 493.95-25.95 495.8-26.9 498.15-26.9L498.15-26.9ZM526.6-5.6Q526.6-4.2 527-3.53 527.4-2.85 528.3-2.45L528.3-2.45 527.35 0.6Q525.5 0.3 524.42-0.58 523.35-1.45 522.9-3.2L522.9-3.2Q520.75 0.6 516.6 0.6L516.6 0.6Q513.35 0.6 511.43-1.58 509.5-3.75 509.5-7.35L509.5-7.35Q509.5-11.55 512.1-13.78 514.7-16 519.65-16L519.65-16 522.25-16 522.25-18.4Q522.25-21 521.23-22.2 520.2-23.4 518.05-23.4L518.05-23.4Q515.5-23.4 512.1-22.05L512.1-22.05 511-25.15Q515.05-26.9 518.6-26.9L518.6-26.9Q522.65-26.9 524.63-24.73 526.6-22.55 526.6-18.6L526.6-18.6 526.6-5.6ZM517.5-2.7Q520.6-2.7 522.25-6.9L522.25-6.9 522.25-13.05 520.15-13.05Q517-13.05 515.52-11.7 514.05-10.35 514.05-7.55L514.05-7.55Q514.05-5.15 514.95-3.93 515.85-2.7 517.5-2.7L517.5-2.7ZM542.4-26.9Q544.4-26.9 546-26.25 547.6-25.6 549.1-24.1L549.1-24.1 547.1-21.5Q545.95-22.45 544.88-22.9 543.8-23.35 542.55-23.35L542.55-23.35Q537.25-23.35 537.25-13.05L537.25-13.05Q537.25-7.7 538.6-5.4 539.95-3.1 542.5-3.1L542.5-3.1Q543.75-3.1 544.77-3.55 545.8-4 547.05-4.95L547.05-4.95 549.1-2.3Q546.1 0.6 542.45 0.6L542.45 0.6Q537.75 0.6 535.15-2.8 532.55-6.2 532.55-12.95L532.55-12.95Q532.55-19.55 535.2-23.23 537.85-26.9 542.4-26.9L542.4-26.9ZM563.45-3.95L565.15-1.2Q562.9 0.6 560.1 0.6L560.1 0.6Q557.15 0.6 555.52-1.15 553.9-2.9 553.9-5.85L553.9-5.85 553.9-22.9 550.35-22.9 550.35-26.35 553.9-26.35 553.9-32.3 558.3-32.85 558.3-26.35 563.4-26.35 562.95-22.9 558.3-22.9 558.3-5.8Q558.3-3.05 560.65-3.05L560.65-3.05Q561.45-3.05 562.05-3.25 562.65-3.45 563.45-3.95L563.45-3.95ZM568.8-26.35L573.2-26.35 573.2 0 568.8 0 568.8-26.35ZM570.95-38.85Q572.3-38.85 573.1-38 573.9-37.15 573.9-35.8L573.9-35.8Q573.9-34.55 573.07-33.7 572.25-32.85 570.95-32.85L570.95-32.85Q569.65-32.85 568.82-33.7 568-34.55 568-35.8L568-35.8Q568-37.1 568.82-37.98 569.65-38.85 570.95-38.85L570.95-38.85ZM589-26.9Q593.7-26.9 596.27-23.43 598.85-19.95 598.85-13.2L598.85-13.2Q598.85-6.85 596.22-3.13 593.6 0.6 588.95 0.6L588.95 0.6Q584.3 0.6 581.7-3.05 579.1-6.7 579.1-13.15L579.1-13.15Q579.1-19.8 581.7-23.35 584.3-26.9 589-26.9L589-26.9ZM589-23.35Q586.35-23.35 585.05-20.98 583.75-18.6 583.75-13.15L583.75-13.15Q583.75-7.75 585.05-5.35 586.35-2.95 588.95-2.95L588.95-2.95Q591.6-2.95 592.9-5.35 594.2-7.75 594.2-13.2L594.2-13.2Q594.2-18.6 592.9-20.98 591.6-23.35 589-23.35L589-23.35ZM615.5-26.9Q618.35-26.9 620.05-24.85 621.75-22.8 621.75-19.35L621.75-19.35 621.75 0 617.35 0 617.35-18.75Q617.35-21.3 616.62-22.38 615.9-23.45 614.45-23.45L614.45-23.45Q611.6-23.45 609.15-18.55L609.15-18.55 609.15 0 604.75 0 604.75-26.35 608.55-26.35 608.9-22.4Q610.2-24.6 611.75-25.75 613.3-26.9 615.5-26.9L615.5-26.9ZM635.25-26.9Q639.6-26.9 642.7-23.95L642.7-23.95 640.8-21.4Q639.4-22.45 638.1-22.98 636.8-23.5 635.35-23.5L635.35-23.5Q633.6-23.5 632.57-22.53 631.55-21.55 631.55-19.85L631.55-19.85Q631.55-18.2 632.55-17.25 633.55-16.3 636.35-15.3L636.35-15.3Q639.95-14 641.65-12.2 643.35-10.4 643.35-7.3L643.35-7.3Q643.35-3.55 640.82-1.48 638.3 0.6 634.55 0.6L634.55 0.6Q629.55 0.6 626.2-2.85L626.2-2.85 628.5-5.3Q631.3-2.85 634.45-2.85L634.45-2.85Q636.45-2.85 637.65-3.95 638.85-5.05 638.85-7.05L638.85-7.05Q638.85-8.4 638.4-9.25 637.95-10.1 636.85-10.8 635.75-11.5 633.65-12.25L633.65-12.25Q630.15-13.55 628.65-15.33 627.15-17.1 627.15-19.7L627.15-19.7Q627.15-21.7 628.17-23.35 629.2-25 631.05-25.95 632.9-26.9 635.25-26.9L635.25-26.9ZM666.75-35Q669.5-35 671.62-34.02 673.75-33.05 675.55-31.05L675.55-31.05 673.15-28.45Q671.6-29.95 670.1-30.63 668.6-31.3 666.8-31.3L666.8-31.3Q664.65-31.3 663.32-29.93 662-28.55 662-26.3L662-26.3Q662-24.1 663.27-22.7 664.55-21.3 668.1-19.95L668.1-19.95Q672.2-18.4 674.3-16.1 676.4-13.8 676.4-9.55L676.4-9.55Q676.4-6.8 675.12-4.48 673.85-2.15 671.5-0.78 669.15 0.6 666.05 0.6L666.05 0.6Q662.95 0.6 660.55-0.55 658.15-1.7 656.2-3.85L656.2-3.85 658.65-6.45Q660.4-4.85 662.12-4 663.85-3.15 665.95-3.15L665.95-3.15Q668.55-3.15 670.1-4.85 671.65-6.55 671.65-9.45L671.65-9.45Q671.65-11.95 670.4-13.45 669.15-14.95 665.75-16.2L665.75-16.2Q661.4-17.85 659.37-20.2 657.35-22.55 657.35-26.1L657.35-26.1Q657.35-28.55 658.55-30.6 659.75-32.65 661.9-33.83 664.05-35 666.75-35L666.75-35ZM681.6-26.35L686-26.35 686 0 681.6 0 681.6-26.35ZM683.75-38.85Q685.1-38.85 685.9-38 686.7-37.15 686.7-35.8L686.7-35.8Q686.7-34.55 685.87-33.7 685.05-32.85 683.75-32.85L683.75-32.85Q682.45-32.85 681.62-33.7 680.8-34.55 680.8-35.8L680.8-35.8Q680.8-37.1 681.62-37.98 682.45-38.85 683.75-38.85L683.75-38.85ZM715.5-26.9Q718.15-26.9 719.75-24.83 721.35-22.75 721.35-19.35L721.35-19.35 721.35 0 717.05 0 717.05-18.8Q717.05-21.3 716.38-22.4 715.7-23.5 714.4-23.5L714.4-23.5Q711.75-23.5 709.5-18.8L709.5-18.8 709.5 0 705.2 0 705.2-18.8Q705.2-23.5 702.55-23.5L702.55-23.5Q701.15-23.5 699.88-22.25 698.6-21 697.6-18.8L697.6-18.8 697.6 0 693.3 0 693.3-26.35 697.1-26.35 697.4-22.55Q699.9-26.9 703.65-26.9L703.65-26.9Q705.65-26.9 707.02-25.68 708.4-24.45 709-22.2L709-22.2Q711.7-26.9 715.5-26.9L715.5-26.9ZM739.1-26.9Q742.95-26.9 744.95-23.38 746.95-19.85 746.95-13.2L746.95-13.2Q746.95-6.75 744.75-3.08 742.55 0.6 738.45 0.6L738.45 0.6Q735.05 0.6 732.85-2.3L732.85-2.3 732.85 10.05 728.45 10.6 728.45-26.35 732.3-26.35 732.55-22.85Q735.05-26.9 739.1-26.9L739.1-26.9ZM737.5-3Q739.85-3 741.07-5.43 742.3-7.85 742.3-13.2L742.3-13.2Q742.3-18.65 741.25-21.03 740.2-23.4 737.95-23.4L737.95-23.4Q735.1-23.4 732.85-19.55L732.85-19.55 732.85-6.05Q734.75-3 737.5-3L737.5-3ZM757.45 0.6Q755.25 0.6 753.92-0.8 752.6-2.2 752.6-4.6L752.6-4.6 752.6-36.95 757-37.45 757-4.7Q757-3.05 758.4-3.05L758.4-3.05Q759.05-3.05 759.65-3.3L759.65-3.3 760.65-0.3Q759.2 0.6 757.45 0.6L757.45 0.6ZM765.05-26.35L769.45-26.35 769.45 0 765.05 0 765.05-26.35ZM767.2-38.85Q768.55-38.85 769.35-38 770.15-37.15 770.15-35.8L770.15-35.8Q770.15-34.55 769.32-33.7 768.5-32.85 767.2-32.85L767.2-32.85Q765.9-32.85 765.07-33.7 764.25-34.55 764.25-35.8L764.25-35.8Q764.25-37.1 765.07-37.98 765.9-38.85 767.2-38.85L767.2-38.85ZM784.75-33.9Q783.15-33.9 782.4-33.1 781.65-32.3 781.65-30.55L781.65-30.55 781.65-26.35 786.95-26.35 786.45-22.9 781.65-22.9 781.65 0 777.25 0 777.25-22.9 773.6-22.9 773.6-26.35 777.25-26.35 777.25-30.5Q777.25-33.6 779.13-35.52 781-37.45 784.4-37.45L784.4-37.45Q787.15-37.45 789.75-36.1L789.75-36.1 788.45-33Q786.6-33.9 784.75-33.9L784.75-33.9ZM790.9-26.35L795.3-26.35 795.3 0 790.9 0 790.9-26.35ZM793.05-38.85Q794.4-38.85 795.2-38 796-37.15 796-35.8L796-35.8Q796-34.55 795.17-33.7 794.35-32.85 793.05-32.85L793.05-32.85Q791.75-32.85 790.92-33.7 790.1-34.55 790.1-35.8L790.1-35.8Q790.1-37.1 790.92-37.98 791.75-38.85 793.05-38.85L793.05-38.85ZM819.65-13.95Q819.65-12.85 819.55-11.65L819.55-11.65 805.75-11.65Q805.95-6.9 807.33-4.95 808.7-3 811.25-3L811.25-3Q812.9-3 814.2-3.53 815.5-4.05 816.9-5.2L816.9-5.2 818.85-2.55Q815.55 0.6 811.1 0.6L811.1 0.6Q806.4 0.6 803.8-2.88 801.2-6.35 801.2-12.9L801.2-12.9Q801.2-19.45 803.68-23.18 806.15-26.9 810.65-26.9L810.65-26.9Q815-26.9 817.33-23.63 819.65-20.35 819.65-13.95L819.65-13.95ZM815.4-14.9L815.4-15.25Q815.4-19.55 814.25-21.5 813.1-23.45 810.65-23.45L810.65-23.45Q808.45-23.45 807.2-21.48 805.95-19.5 805.75-14.9L805.75-14.9 815.4-14.9ZM838.15-37.45L842.55-36.95 842.55 0 838.65 0 838.35-3.35Q836 0.6 832.35 0.6L832.35 0.6Q828.25 0.6 826.08-3.03 823.9-6.65 823.9-13.05L823.9-13.05Q823.9-17.2 825-20.35 826.1-23.5 828.05-25.2 830-26.9 832.5-26.9L832.5-26.9Q835.95-26.9 838.15-23.85L838.15-23.85 838.15-37.45ZM833.2-2.9Q836.05-2.9 838.15-6.65L838.15-6.65 838.15-20Q836.1-23.4 833.4-23.4L833.4-23.4Q831.1-23.4 829.83-20.9 828.55-18.4 828.55-13.15L828.55-13.15Q828.55-2.9 833.2-2.9L833.2-2.9Z" opacity="1" transform="matrix(1,0,0,1,0,0)" fill="#c6e4ec" class="slogan-text-1" data-fill-palette-color="secondary" id="text-1"></path></svg></g></svg></g></svg></g></svg></g><g><svg viewBox="0 0 229.04877638876872 229.04877638876872" height="229.04877638876872" width="229.04877638876872"><g><svg></svg></g><g id="icon-0"><svg viewBox="0 0 229.04877638876872 229.04877638876872" height="229.04877638876872" width="229.04877638876872"><g><path d="M0 114.524c0-63.25 51.274-114.524 114.524-114.524 63.25 0 114.524 51.274 114.525 114.524 0 63.25-51.274 114.524-114.525 114.525-63.25 0-114.524-51.274-114.524-114.525zM114.524 220.487c58.522 0 105.963-47.441 105.963-105.963 0-58.522-47.441-105.963-105.963-105.963-58.522 0-105.963 47.441-105.963 105.963 0 58.522 47.441 105.963 105.963 105.963z" data-fill-palette-color="tertiary" fill="#1cac7c" stroke="transparent"></path></g><g transform="matrix(1,0,0,1,52.932329571205365,73.4620173139676)"><svg viewBox="0 0 123.18411724635799 82.12474176083349" height="82.12474176083349" width="123.18411724635799"><g><svg xmlns="http://www.w3.org/2000/svg" xmlns:xlink="http://www.w3.org/1999/xlink" version="1.1" x="0" y="0" viewBox="8.626 36.293 82.249 54.833999999999996" enable-background="new 0 0 100 100" xml:space="preserve" height="82.12474176083349" width="123.18411724635799" class="icon-cg-0" data-fill-palette-color="accent" id="cg-0"><g fill="#1cac7c" data-fill-palette-color="accent"><g fill="#1cac7c" data-fill-palette-color="accent"><g fill="#1cac7c" data-fill-palette-color="accent"><path d="M90.875 47.26v32.9c0 6.053-4.908 10.967-10.967 10.967H19.592c-6.053 0-10.966-4.914-10.966-10.967V58.226c0-6.059 4.913-10.966 10.966-10.966h21.932c0-6.059 4.914-10.967 10.968-10.967h27.417C85.967 36.293 90.875 41.201 90.875 47.26zM85.392 80.16v-32.9c0-3.021-2.458-5.483-5.483-5.483H52.492c-3.021 0-5.484 2.461-5.484 5.483v5.483h-5.483H19.592c-3.021 0-5.483 2.461-5.483 5.483V80.16c0 3.027 2.462 5.484 5.483 5.484h60.316C82.934 85.644 85.392 83.187 85.392 80.16z" fill="#1cac7c" data-fill-palette-color="accent"></path><path d="M82.648 47.26v10.966c0 1.513-1.221 2.742-2.739 2.742H52.492c-1.512 0-2.741-1.229-2.741-2.742V47.26c0-1.514 1.229-2.742 2.741-2.742h27.417C81.427 44.518 82.648 45.746 82.648 47.26z" fill="#1cac7c" data-fill-palette-color="accent"></path></g></g></g></svg></g></svg></g></svg></g></svg></g></svg></g><defs></defs></svg><rect width="395.52" height="135.33657821821697" fill="none" stroke="none" visibility="hidden"></rect></g></svg></g></svg>